<svg width="32" height="32" viewBox="0 0 32 32" fill="none" xmlns="http://www.w3.org/2000/svg">
<path fill-rule="evenodd" clip-rule="evenodd" d="M10.3281 30.9711L10.9273 30.1814L9.4097 29.9839L9.26959 30.5252C3.79571 27.9831 0 22.4364 0 16.0029C0 7.16476 7.16345 0 16 0C24.8365 0 32 7.16476 32 16.0029C32.0055 19.4775 30.8751 22.8587 28.781 25.6313L28.208 25.3679L27.2743 26.517L27.58 27.0458C27.4836 27.1469 27.3859 27.2468 27.2869 27.3453L25.5839 24.3955L24.3366 27.9846L26.02 28.4796C25.8912 28.5832 25.7608 28.6848 25.6287 28.7845L24.1721 28.3564L22.9259 30.4327C22.7128 30.5353 22.497 30.6332 22.2787 30.7264L23.7727 28.2387L22.2264 27.7848V30.7487C22.0929 30.8051 21.9584 30.8598 21.8231 30.9128V29.0811L21.2827 31.1129C21.1309 31.1661 20.978 31.217 20.824 31.2657L21.7374 27.8323L15.5673 29.646V30.242L17.1839 31.9626C17.0088 31.9754 16.833 31.9854 16.6564 31.9925L15.5673 30.8333V32C15.4322 31.9964 15.2975 31.9911 15.1632 31.9842V30.7885L13.9967 31.8815C13.8249 31.86 13.654 31.8359 13.484 31.809L15.1634 30.2357V29.7242L11.6392 30.1855L12.5621 31.6355C12.3728 31.5941 12.1849 31.5493 11.9981 31.5012L11.2848 30.3796L10.7257 31.116C10.5923 31.0694 10.4598 31.0212 10.3281 30.9712V30.9711ZM28.5593 12.6913H28.3193C28.3082 12.7089 28.2944 12.7245 28.2784 12.7377L27.5593 15.69L28.5593 14.4228V12.6913ZM27.5208 9.44324H24.2375L23.8743 10.3662L27.8895 12.1608L27.5208 9.44324ZM27.8296 25.1938L26.0344 24.3683L27.0585 26.1421L27.8296 25.1938ZM27.448 12.4052L23.7111 10.7352L22.4552 13.2891L27.448 12.4052ZM27.3431 9.03975L25.8711 6.45015L24.4415 9.03975H27.3431ZM25.4671 6.34698L20.9808 7.48564L24.016 8.97502L25.4671 6.34698ZM25.1895 6.00105L22.1385 4.87356L20.8224 7.10993L25.1895 6.00105ZM25.0456 24.7152L22.4193 27.4207L23.948 27.8704L25.0456 24.7152ZM20.5224 7.70865L19.3896 9.55909V10.8192L23.472 10.2869L23.844 9.34102L20.5224 7.70865ZM23.2952 16.0687C23.2804 16.0814 23.264 16.0921 23.2465 16.1006C23.245 16.1015 23.2433 16.1021 23.2415 16.1022C23.2168 16.1129 23.1901 16.1184 23.1631 16.1183H21.0327C21.0058 16.1184 20.9791 16.1129 20.9543 16.1022C20.9532 16.1023 20.952 16.102 20.951 16.1015L20.9415 16.0967C20.9339 16.093 20.9266 16.0888 20.9197 16.084C20.8976 16.0701 20.8788 16.0514 20.8647 16.0294C20.849 16.006 20.8383 15.9796 20.8334 15.9519C20.8326 15.9471 20.8318 15.9423 20.8309 15.9376C20.8299 15.9237 20.8299 15.9098 20.8309 15.8959C20.8318 15.8886 20.8334 15.8813 20.835 15.8744C20.836 15.8672 20.8378 15.8602 20.8406 15.8535C20.8448 15.8412 20.8498 15.8293 20.8557 15.8177L21.9085 13.4876C21.9101 13.4835 21.912 13.4795 21.9142 13.4757C21.9142 13.4741 21.9149 13.4734 21.9157 13.4717C21.9164 13.47 21.9165 13.4686 21.9173 13.4677L21.9238 13.4558L23.2678 10.7207L19.2465 11.2444L16.24 12.68L17.1656 16.4724L17.1687 16.4827C17.1701 16.4869 17.1712 16.4912 17.1721 16.4955L17.1729 16.5019L17.2296 16.7336L18.192 18.8567L18.7416 19.5206L19.9185 20.9413L22.0974 21.7955L24.1993 20.9429L25.3774 19.5206L25.9273 18.8567L26.8896 16.7336L26.9409 16.5219C26.9424 16.5054 26.9464 16.4892 26.9529 16.474V16.4731L27.8617 12.7425L22.3897 13.7101L23.3409 15.8204L23.3472 15.8339C23.3588 15.86 23.3649 15.8884 23.3649 15.917C23.3649 15.9267 23.364 15.9363 23.3624 15.9459C23.3614 15.9553 23.3596 15.9646 23.3568 15.9737C23.3537 15.9825 23.3504 15.9913 23.3472 16.0001C23.3459 16.0022 23.3449 16.0043 23.344 16.0065C23.3426 16.0085 23.3416 16.0107 23.3409 16.013C23.3393 16.0161 23.3369 16.0185 23.3353 16.0217C23.3329 16.0259 23.3302 16.0299 23.3273 16.0337C23.3212 16.043 23.3139 16.0516 23.3057 16.0591C23.3028 16.063 23.2992 16.0662 23.2952 16.0688V16.0687ZM22.0993 14.0473L21.3457 15.7148H22.8503L22.0993 14.0473ZM22.1224 22.2133C22.107 22.2155 22.0913 22.2155 22.0759 22.2133C22.0683 22.2128 22.0608 22.2115 22.0536 22.2093C22.0442 22.2076 22.0351 22.2047 22.0265 22.2006C22.0214 22.1995 22.0165 22.1976 22.0119 22.195L19.7222 21.2985C19.7194 21.2975 19.7167 21.2961 19.7142 21.2944C19.7103 21.2933 19.7065 21.2917 19.7029 21.2896C19.6982 21.2873 19.6942 21.2849 19.6901 21.2824C19.676 21.2738 19.6631 21.2633 19.652 21.2512C19.6481 21.2478 19.6445 21.2441 19.6414 21.24C19.641 21.2399 19.6407 21.2398 19.6404 21.2395C19.6401 21.2392 19.6399 21.2389 19.6399 21.2385L18.7854 20.2069V23.8401L22.0269 27.2463L25.3333 23.8387V20.207L24.4893 21.2252C24.473 21.2493 24.4514 21.2695 24.4262 21.2841C24.4206 21.2875 24.4147 21.2905 24.4085 21.2929C24.4053 21.2945 24.4013 21.2962 24.3982 21.2977L22.188 22.195L22.1752 22.1998C22.1643 22.2048 22.1527 22.2083 22.1408 22.2101C22.1347 22.2115 22.1286 22.2126 22.1224 22.2133V22.2133ZM21.6511 27.4367L18.6239 24.2548L15.792 29.1595L21.6511 27.4367ZM21.5849 5.01753L18.6952 6.08567L20.3351 7.142L21.5849 5.01753ZM20.168 7.51451L18.316 6.32236L16.7521 9.07018L19.0809 9.28985L20.168 7.51451ZM18.9854 9.68622L17.2157 9.51916L18.9854 10.6753V9.68622ZM16.5798 9.58633L16.2263 12.2397L18.7758 11.0213L16.5798 9.58633ZM18.0919 24.3691L16.2957 25.1937L17.067 26.1438L18.0919 24.3691ZM15.9173 25.3679L11.2167 27.5293L15.28 29.2393L16.8504 26.5186L15.9173 25.3679ZM16.5593 15.6892L15.8368 12.7281C15.8253 12.7171 15.8151 12.7047 15.8064 12.6913H15.5673V14.4227L16.5593 15.6892ZM14.5984 29.3911L11.0031 27.8769L11.4536 29.8025L14.5984 29.3911ZM10.6271 28.0415L9.60479 29.602L11.0358 29.7889L10.6271 28.0415Z" fill="#3041B9"/>
</svg>
