<svg width="32" height="32" viewBox="0 0 32 32" fill="none" xmlns="http://www.w3.org/2000/svg">
<path fill-rule="evenodd" clip-rule="evenodd" d="M16 24.5294C20.7107 24.5294 24.5294 20.7107 24.5294 16C24.5294 11.2893 20.7107 7.47059 16 7.47059C11.2893 7.47059 7.47059 11.2893 7.47059 16C7.47059 20.7107 11.2893 24.5294 16 24.5294ZM16 31C24.2843 31 31 24.2843 31 16C31 7.71573 24.2843 1 16 1C7.71573 1 1 7.71573 1 16C1 24.2843 7.71573 31 16 31Z" fill="#C106F1"/>
<path d="M21.2949 15.9989L13.3537 20.5837L13.3537 11.4141L21.2949 15.9989Z" fill="#C106F1"/>
</svg>
