<svg xmlns="http://www.w3.org/2000/svg" viewBox="0 0 409.48 408.21"><defs><style>.cls-1{fill:#eff2f2;}.cls-2{fill:#dadada;}.cls-3{fill:#1d1d1b;}.cls-4{opacity:0.52;}.cls-5{fill:#aec6c5;}.cls-6{fill:#5e636c;}.cls-7{fill:#fff;}.cls-8{fill:none;}.cls-9{fill:#ea571c;}.cls-10{opacity:0.13;}</style></defs><title>Wild Trek Logo - Una nuova esperienza di viaggio</title><g id="Livello_2" data-name="Livello 2"><g id="Livello_1-2" data-name="Livello 1"><path class="cls-1" d="M401.78,205.8c0,109.07-88.41,197.49-197.48,197.49S6.82,314.87,6.82,205.8"/><rect class="cls-2" x="216.35" y="79.42" width="1" height="316.19" transform="translate(-74.27 100.8) rotate(-22.45)"/><rect class="cls-2" x="14.84" y="206.96" width="380.68" height="1" transform="translate(-63.29 93.18) rotate(-22.26)"/><rect class="cls-2" x="203.76" y="18.03" width="1" height="380.68" transform="translate(-66.91 316.12) rotate(-67.24)"/><path class="cls-2" d="M203.85,311.3h-.38a103.36,103.36,0,0,1,.35-206.71h.38a103.37,103.37,0,0,1,103,103.72h0a103.36,103.36,0,0,1-103.34,103Zm0-205.71a102.36,102.36,0,0,0-.35,204.71h.38a102.36,102.36,0,0,0,.35-204.71Z"/><path class="cls-3" d="M391,207.47h0A186.28,186.28,0,0,1,73,339.19,185.06,185.06,0,0,1,18.46,207.47H4A200.74,200.74,0,0,0,346.69,349.41a199.42,199.42,0,0,0,58.79-141.94H391Z"/><path class="cls-3" d="M369.41,207.47h0c0,90.8-73.87,164.67-164.67,164.67S40.07,298.27,40.07,207.47H37.66c0,92.13,75,167.08,167.08,167.08S371.82,299.6,371.82,207.47h-2.41Z"/><path class="cls-3" d="M360.64,207.47h0c0,86-69.94,155.9-155.9,155.9s-155.9-69.94-155.9-155.9H46.43c0,87.29,71,158.31,158.31,158.31s158.31-71,158.31-158.31h-2.41Z"/><g class="cls-4"><polygon class="cls-5" points="223.46 204.04 259.49 166 307.6 115.18 252.93 158.86 211.69 191.81 210.64 155.88 209.28 109.27 204.02 155.6 199.89 192 160.78 154.97 109.97 106.86 153.65 161.53 186.54 202.7 151.42 203.72 104.81 205.08 151.14 210.34 186.66 214.38 150.24 252.83 102.13 303.65 156.8 259.97 197.49 227.46 198.51 262.43 199.87 309.04 205.13 262.71 209.1 227.75 247.61 264.22 298.43 312.33 254.75 257.66 221.19 215.65 257.73 214.59 304.34 213.23 258.01 207.97 223.46 204.04"/></g><path d="M101.22,288.78l-6-6.15c4.33,1.76,7.47-1.32,10.9-2.78,6-2.59,11.92-5.55,17.88-8.35.71-.34,1.45-.64,2.87-1.25l-8.92,19.36,19.42-8.69c-.86,1.9-1.39,3.16-2,4.39-3.29,6.81-6.62,13.6-9.89,20.42-1,2.16-2.21,4.36-.82,7l-8.15-8.34a7.9,7.9,0,0,1,1.63.61c1.38,1.14,2.31.86,3.06-.75,2.57-5.6,5.19-11.17,8-17.3-4.36,1.88-8.27,3.42-12,5.25-2.07,1-3.54,7.18-2.52,9.33a1,1,0,0,1-.06,1l-8.26-8.46c.22-.12.39-.28.46-.24,3.31,1.78,3.33,1.8,4.94-1.68,2.36-5.12,4.68-10.26,7.29-16-5.92,2.71-11.26,5.16-16.61,7.58C99.91,284.93,100.72,286.78,101.22,288.78Z"/><path d="M284.85,308.05,277.49,302l.26-.64a18.09,18.09,0,0,1,2.19.58c3,1.24,5.92,1.49,8.74-.34,1.86-1.21,3-2.93,2.41-5.22a4.25,4.25,0,0,0-4.7-3.22,52.58,52.58,0,0,0-6.32,1,61.17,61.17,0,0,1-6.07,1.05c-4,.29-6.94-1.4-8.29-4.56a8.46,8.46,0,0,1,1.82-9.58,24.81,24.81,0,0,1,4.5-3.37c1.41-1,3.78-1.13,2.24-4.31l.86.22,7.67,5.86-.23.64a25.83,25.83,0,0,1-2.53-.57c-3.47-1.16-6.8-1.36-9.79,1.2-1.67,1.44-2.64,3.17-2.09,5.44a4.63,4.63,0,0,0,4.28,3.86,28.93,28.93,0,0,0,6.33-.59c2.11-.33,4.16-1.08,6.28-1.26a7.94,7.94,0,0,1,8.55,5.28c1.17,3.46-.22,7.07-3.64,9.37a16.53,16.53,0,0,1-2.33,1.37c-1.59.71-3,1.48-2.11,3.83Z"/><path d="M197.92,298.91c-3.4,6.77-2.72,8.39.36,10.67l-5.16-.22a7,7,0,0,0,.23-2.65c-.79-2.57-1.84-5.06-3-8.12-1.17,3.06-2.26,5.59-3.05,8.21-.24.79.34,1.83.53,2.74l-3.94,0c2.78-2,2.91-5,4-7.56s1.92-5.21,3.1-8.44c1.35,3.56,2.48,6.58,3.8,10.08l3.8-9.89c2.15,5.72,4.11,10.9,5.91,15.69l-3.95-.12c.1-.4.65-1.31.44-2C200.14,304.63,199.06,302,197.92,298.91Z"/><path d="M100.23,215.35l.53-4.27a17.5,17.5,0,0,0,4,1.09c3.68.21,7.37.12,11.75.15l-12.64,10,.23.59c3.76-.79,7.89,1.52,11.43-1.37-.09,1.14-.19,2.6-.27,3.58a11.27,11.27,0,0,0-3.06-1.08A60.07,60.07,0,0,0,104,224a16.71,16.71,0,0,0-3.88,1.18,4.25,4.25,0,0,1,2.16-4.68,61.83,61.83,0,0,0,8.39-6.93C107.24,214.14,103.33,211.48,100.23,215.35Z"/><path d="M303.43,221.65l-2.69-.06c3.52-2,1.79-5.14,2.29-7.73l-5.87.14c.25,1.87-1.28,4.5,1.15,5.49l-4.21.23c3.2-1,1.49-3.82,2-5.76l-6.66-.12c.11,2.87-1.27,6.3,2.86,8.15l-.31.51-3.2-.8c.07-4.2.15-8.28.22-11.8,1.41,1.92,13.16,2,14.53-.21Q303.5,215.24,303.43,221.65Z"/><path d="M207.19,309.67c-.1-1.26-.23-2.78-.36-4.3l.35-.13a6.82,6.82,0,0,0,1.13,1.89,7.53,7.53,0,0,0,3,1.91,2.88,2.88,0,0,0,2.36-1.22,2.5,2.5,0,0,0-.48-2.35,25.5,25.5,0,0,0-3.92-3c-2.51-1.68-3.42-3.64-2.56-5.75s3.1-3,5.85-2.55c1.12.19,2.26.31,3.67.5.05.3.18,1,.27,1.73s.14,1.44.26,2.77a33.15,33.15,0,0,0-2.44-3.16c-1.55-1.53-4-1.47-5,0s-.45,3.19,1.35,4.41c1,.69,2.09,1.31,3.11,2,1.93,1.28,2.86,3,2,5.29-.73,2-2.79,2.72-5.45,2.16A23.54,23.54,0,0,0,207.19,309.67Z"/><rect class="cls-3" x="277.55" y="328.67" width="1" height="8.93" transform="translate(-129.33 183.69) rotate(-30)"/><rect class="cls-3" x="104.85" y="359.41" width="22.6" height="3" transform="translate(-254.47 281.02) rotate(-60)"/><rect class="cls-3" x="147.58" y="377.11" width="22.61" height="3" transform="translate(-247.96 433.96) rotate(-74.98)"/><rect class="cls-3" x="68.16" y="331.25" width="22.6" height="3" transform="translate(-212.02 153.65) rotate(-45)"/><rect class="cls-3" x="40" y="294.56" width="22.6" height="3" transform="translate(-141.17 65.33) rotate(-30)"/><rect class="cls-3" x="203.24" y="373.34" width="3" height="22.6"/><rect class="cls-3" x="249.1" y="367.31" width="3" height="22.61" transform="translate(-89.45 77.76) rotate(-15)"/><rect class="cls-3" x="328.52" y="321.45" width="3" height="22.6" transform="translate(-138.63 330.84) rotate(-45)"/><rect class="cls-3" x="356.68" y="284.76" width="3" height="22.6" transform="translate(-77.3 458.23) rotate(-60)"/><rect class="cls-3" x="22.3" y="251.83" width="22.6" height="3" transform="translate(-64.4 17.32) rotate(-15)"/><rect class="cls-3" x="374.38" y="242.02" width="3" height="22.6" transform="matrix(0.26, -0.97, 0.97, 0.26, 33.9, 550.83)"/><rect class="cls-3" x="162.57" y="345.87" width="8.93" height="1" transform="matrix(0.26, -0.97, 0.97, 0.26, -210.83, 417.71)"/><rect class="cls-3" x="127.5" y="330.46" width="8.93" height="1" transform="translate(-220.65 279.8) rotate(-60.01)"/><rect class="cls-3" x="97.61" y="306.51" width="8.93" height="1" transform="translate(-187.19 162.1) rotate(-45)"/><rect class="cls-3" x="204.24" y="347.91" width="1" height="8.93"/><rect class="cls-3" x="242.25" y="342.84" width="1" height="8.93" transform="translate(-81.61 74.65) rotate(-15)"/><rect class="cls-3" x="74.92" y="275.81" width="8.93" height="1" transform="translate(-127.6 76.79) rotate(-30.02)"/><rect class="cls-3" x="308.2" y="306.2" width="1" height="8.93" transform="translate(-129.25 309.28) rotate(-45)"/><rect class="cls-3" x="61.08" y="240.68" width="8.93" height="1" transform="matrix(0.97, -0.26, 0.26, 0.97, -60.13, 25.15)"/><rect class="cls-3" x="332.16" y="276.34" width="1" height="8.93" transform="translate(-76.86 428.5) rotate(-60)"/><rect class="cls-3" x="347.75" y="241.28" width="1" height="8.93" transform="translate(20.72 518.5) rotate(-75)"/><path class="cls-6" d="M405.28,207.93c6-52.42-19.67-99.4-19.67-99.4-2.65-3.06-6.16-5.6-9.14-8.55a17.62,17.62,0,0,0-4.17,3.68c-2.2,2.57-4.55,5.09-6.9,7.63-1.25-1.85-2.47-3.72-3.65-5.56-4.09-6.35-10.48-8.51-14.9-13.92C344,88.39,345.4,85.9,344,82.09c-1.6-4.29-5.77-7.49-8.55-11-1.5-1.93-3.28-4-5.11-6.11-4.48,4.57-8.6,9.77-10.95,14.5-3.67,7.38-3.3,15.14-7.09,22.34A130.48,130.48,0,0,0,305.63,90a241.15,241.15,0,0,0-21.35-27.48c-3.57-3.88-8-10.44-12.8-15.48-1.31,2.64-2.6,5.21-4.21,6.71-3.51,3.29-7.57,4.74-11.64,6.4A86.59,86.59,0,0,1,247,45.21c-6-12.67-14.34-19.07-24.16-28.35-5.41-5.12-9.78-11-14.17-16.86-1.2,3.19-2.21,6.69-4.15,9.37-4.64,6.38-10.86,10.82-16.62,16.08-6.22,5.66-9.12,12.12-14.42,18.37-3.07,3.63-9.63,7.9-14.85,12.5-2.4-4.42-4.5-9.64-7-14a72.68,72.68,0,0,0-6.56,12.21c-5.49,13.08-15.74,16.82-23.74,27.72-1.83,2.5-4.41,5.53-7,8.79l-.36-.38C107.89,84.16,103.19,75,97,67.87c-4.77,4.56-8.68,8.1-11.17,15.82-3.57,11.08-7.18,21-16.09,29.15-2.42,2.21-5.26,4.33-8.15,6.48a26,26,0,0,0-3.8-3.59c-3.72-2.79-8.31-2.43-11.81-6.26a17,17,0,0,1-3.32-5.62A31.72,31.72,0,0,0,34.4,110c-2.59,2.77-3.45,6.67-6.29,9.56,0,0-25.61,27.3-22.29,88.35Z"/><path class="cls-7" d="M41.76,112.74c3.11,3,6.37,5.8,9.68,8.58-7.45.73-14.17,3.78-20.5,8.81C27.28,133,25,130.92,20.59,133c6.53-3.7,8.44-8,13.8-13.41,1.7-1.73,3.36-4,5.43-5.62C40.15,113.75,41,113.25,41.76,112.74Z"/><path class="cls-7" d="M74.89,116.89c0,.13,0,.26,0,.39A27.16,27.16,0,0,1,73,126.53c12-5,5.48-5.3,24.66-20.82-.27-7,.17-16-1-24.54-9,7.57-12.4,20.46-17.61,31A13.92,13.92,0,0,1,74.89,116.89Z"/><path class="cls-7" d="M125.61,96a24.05,24.05,0,0,1,1.57,8.23c0,.5,0,1,0,1.49,5.85-4.43,12.1-9.38,17.1-14,0-.53,0-1.07,0-1.61V88.33c0-6.84-.32-5,5-27.82A59,59,0,0,0,141,68.28c-1.82,2.12-4.19,5.93-6.54,7.78-5.11,5.17-9.45,11.65-17.66,20-.26,2-.43,4-.63,6C119.29,100.05,122.48,98.06,125.61,96Z"/><path class="cls-7" d="M254.54,76.06c-7-3.17-20.64-21.38-25.5-27.87a34.35,34.35,0,0,0-9.48-8.33c-.91,1.42-1.71,5-2.86,6.67-4.72-4.26-9.56-8.38-14.58-12.27-5.2,2-16.53,13.25-21.49,15.61-1.12-.61,8.54-11.15,7.42-11.78,3.63-5.48,6.63-3.29,10.15-7.57a46.65,46.65,0,0,1,6.68-7c5.61-4.34,1.78-2.79,6.68-6.51,7.64,9.43,21.66,17.86,23.18,23.53C240,59.92,243.8,58.47,246,61.67"/><path class="cls-7" d="M291.17,81.17c-6.23-7.66-15-14.5-20.11-23.08-4.5,3.11-7.23,5-11.13,7.73,5.08,4,7.65,10.06,12.53,14.62,2.23,2.08,3.84,3.67,5.05,5,1.26-1.81,2.53-3.62,3.67-5.51,7.73,6.47,14.87,13.53,22.87,19.58C300.69,93.56,294.35,88,291.17,81.17Z"/><path class="cls-7" d="M339.84,83.21c-3.71-4.36-5.81-5.83-8.42-7.15a77.52,77.52,0,0,1,.55,9.61c0,5.19-.39,10.38-.72,15.6a193.56,193.56,0,0,1,26.15,10.35c-2.82-6.59-9.5-11.7-14.41-17.18C340.36,91.51,340.36,87.27,339.84,83.21Z"/><path class="cls-7" d="M387.66,129.62c-10.88-4-12.26-10.71-18.77-13.62,1.92-4,5.65-7,9.29-9.75C388.12,116.64,386.71,122.7,387.66,129.62Z"/><path class="cls-8" d="M381.15,104l-.14.12"/><path class="cls-9" d="M405.48,211.47H4a4,4,0,0,1,0-8H405.48a4,4,0,0,1,0,8Z"/><polygon class="cls-3" points="203.8 189.52 217.73 182.42 258.28 279.25 298.84 376.08 244.36 286.35 189.87 196.61 203.8 189.52"/><path class="cls-7" d="M298,376.6,188.46,196.21,218.23,181,299.76,375.7ZM191.29,197l101.45,167.1L217.22,183.8Z"/><g class="cls-10"><polygon class="cls-7" points="298.84 376.08 258.28 279.25 217.73 182.42 203.8 189.52 298.84 376.08"/></g><circle class="cls-3" cx="207.84" cy="192.43" r="22.63"/><circle class="cls-3" cx="207.84" cy="192.43" r="18.56"/><path class="cls-7" d="M207.87,212a19.56,19.56,0,1,1,16-30.74h0a19.55,19.55,0,0,1-16,30.74Zm-.05-37.1a17.55,17.55,0,1,0,14.43,7.5A17.44,17.44,0,0,0,207.82,174.88Z"/><path class="cls-7" d="M62.29,200.66l-1.71-4.21H52.65l-1.72,4.21H46.72l8-18.9h3.81l8,18.9Zm-5.68-13.94-2.49,6.09h5Z"/><path class="cls-7" d="M75.26,200.77h-3.7l-5.65-14.48h4.31l3.22,9.62,3.24-9.62h4.24Z"/><path class="cls-7" d="M90.94,200.77h-3.7l-5.66-14.48H85.9l3.21,9.62,3.25-9.62h4.23Z"/><path class="cls-7" d="M111.49,194.9h-10a3.33,3.33,0,0,0,3.51,2.81,4.74,4.74,0,0,0,3.49-1.47l2.33,2.06a7.59,7.59,0,0,1-13.37-4.74v-.06a7.14,7.14,0,0,1,7.1-7.47c4.8,0,7,3.72,7,7.79v.06C111.54,194.28,111.52,194.52,111.49,194.9Zm-6.94-5.61c-1.69,0-2.79,1.21-3.11,3.06h6.14C107.34,190.53,106.26,189.29,104.55,189.29Z"/><path class="cls-7" d="M123.66,200.66v-8c0-1.93-.92-2.93-2.47-2.93s-2.55,1-2.55,2.93v8h-4.07V186.29h4.07v2a5.08,5.08,0,0,1,4.21-2.3c3.08,0,4.88,2,4.88,5.33v9.3Z"/><path class="cls-7" d="M136.11,200.9c-2.49,0-4.18-1-4.18-4.32v-6.8h-1.71v-3.49h1.71v-3.67H136v3.67h3.37v3.49H136v6.13c0,.94.4,1.4,1.31,1.4a4.16,4.16,0,0,0,2-.51v3.27A6,6,0,0,1,136.11,200.9Z"/><path class="cls-7" d="M151.36,200.66v-2a5.07,5.07,0,0,1-4.21,2.31c-3.08,0-4.87-2-4.87-5.34v-9.3h4.07v8c0,1.93.91,2.92,2.47,2.92s2.54-1,2.54-2.92v-8h4.08v14.37Z"/><path class="cls-7" d="M167.52,190.29c-2.71,0-4.37,1.63-4.37,5.06v5.31h-4.07V186.29h4.07v2.9c.83-2,2.17-3.27,4.58-3.16v4.26Z"/><path class="cls-7" d="M183.22,194.9h-10a3.32,3.32,0,0,0,3.51,2.81,4.72,4.72,0,0,0,3.48-1.47l2.33,2.06a7.59,7.59,0,0,1-13.37-4.74v-.06a7.14,7.14,0,0,1,7.1-7.47c4.8,0,7,3.72,7,7.79v.06C183.28,194.28,183.25,194.52,183.22,194.9Zm-6.94-5.61c-1.69,0-2.79,1.21-3.11,3.06h6.14C179.07,190.53,178,189.29,176.28,189.29Z"/><path class="cls-7" d="M198.44,184.71v-3.62h4.29v3.62Zm.11,15.95V186.29h4.07v14.37Z"/><path class="cls-7" d="M215.53,200.66v-8c0-1.93-.91-2.93-2.46-2.93s-2.55,1-2.55,2.93v8h-4.07V186.29h4.07v2a5.08,5.08,0,0,1,4.21-2.3c3.08,0,4.88,2,4.88,5.33v9.3Z"/><path class="cls-7" d="M243.59,201a7.33,7.33,0,0,1-7.48-7.42v-.06a7.37,7.37,0,0,1,7.53-7.47,7,7,0,0,1,5.73,2.41l-2.49,2.68a4.17,4.17,0,0,0-3.27-1.58,3.67,3.67,0,0,0-3.48,3.91v.05a3.68,3.68,0,0,0,3.64,4,4.54,4.54,0,0,0,3.3-1.53l2.39,2.41A7.25,7.25,0,0,1,243.59,201Z"/><path class="cls-7" d="M260.52,200.66V199.1a5.52,5.52,0,0,1-4.34,1.83c-2.71,0-4.93-1.56-4.93-4.4v-.05c0-3.14,2.38-4.59,5.79-4.59a10.45,10.45,0,0,1,3.51.59v-.24c0-1.69-1.05-2.62-3.08-2.62a10.6,10.6,0,0,0-4,.77l-1-3.11a12.79,12.79,0,0,1,5.58-1.15c4.44,0,6.4,2.31,6.4,6.19v8.34Zm.08-5.79a6.32,6.32,0,0,0-2.6-.54c-1.74,0-2.81.7-2.81,2v.05c0,1.1.91,1.74,2.22,1.74,1.91,0,3.19-1,3.19-2.52Z"/><path class="cls-7" d="M285.82,200.66v-8c0-1.93-.86-2.93-2.39-2.93s-2.46,1-2.46,2.93v8h-4.08v-8c0-1.93-.85-2.93-2.38-2.93s-2.47,1-2.47,2.93v8H268V186.29H272v2a5.12,5.12,0,0,1,4.24-2.3,4.3,4.3,0,0,1,4,2.27A5.94,5.94,0,0,1,285,186c3,0,4.85,1.82,4.85,5.27v9.36Z"/><path class="cls-7" d="M311.27,200.66v-8c0-1.93-.85-2.93-2.38-2.93s-2.47,1-2.47,2.93v8h-4.07v-8c0-1.93-.86-2.93-2.38-2.93s-2.47,1-2.47,2.93v8h-4.07V186.29h4.07v2a5.12,5.12,0,0,1,4.23-2.3,4.3,4.3,0,0,1,4,2.27A5.92,5.92,0,0,1,310.5,186c3,0,4.85,1.82,4.85,5.27v9.36Z"/><path class="cls-7" d="M319,184.71v-3.62h4.29v3.62Zm.11,15.95V186.29h4.07v14.37Z"/><path class="cls-7" d="M336.06,200.66v-8c0-1.93-.91-2.93-2.47-2.93s-2.54,1-2.54,2.93v8H327V186.29h4.08v2a5.07,5.07,0,0,1,4.21-2.3c3.08,0,4.87,2,4.87,5.33v9.3Z"/><path class="cls-7" d="M350.72,201a7.47,7.47,0,0,1-7.75-7.42v-.06a7.78,7.78,0,0,1,15.55-.05v.05A7.54,7.54,0,0,1,350.72,201Zm3.77-7.48a3.81,3.81,0,0,0-3.77-4,3.68,3.68,0,0,0-3.73,3.91v.05a3.82,3.82,0,0,0,3.78,4,3.68,3.68,0,0,0,3.72-3.91Z"/><path class="cls-9" d="M101.08,174.74H94.37l-7.91-22.92-7.91,22.92h-6.7l-12-35.28h8.26l7.25,23.72,7.86-23.82h6.6l7.86,23.82L105,139.46H113Z"/><path class="cls-7" d="M119.1,174.49v-35h7.71v35Z"/><path class="cls-7" d="M135.57,174.49v-35h7.7v28h17.47v7Z"/><path class="cls-7" d="M180.21,174.49H166.55v-35h13.66c11,0,18.62,7.55,18.62,17.41v.1C198.83,166.83,191.22,174.49,180.21,174.49ZM190.77,157c0-6.2-4.26-10.56-10.56-10.56h-6v21.12h6c6.3,0,10.56-4.25,10.56-10.46Z"/><path class="cls-9" d="M236.57,146.56v27.93h-7.71V146.56H218.2v-7.1h29v7.1Z"/><path class="cls-7" d="M274.4,174.49l-7.5-11.21h-6.06v11.21h-7.71v-35h16c8.26,0,13.21,4.35,13.21,11.56v.1a10.88,10.88,0,0,1-7.5,10.86l8.55,12.51Zm.15-23.07c0-3.31-2.3-5-6.05-5h-7.66v10.06h7.81c3.75,0,5.9-2,5.9-4.95Z"/><path class="cls-7" d="M289.32,174.49v-35h26.43v6.85H297v7.11h16.51v6.86H297v7.35h19v6.86Z"/><path class="cls-7" d="M345.48,174.49l-10.86-14.92-4.06,4.21v10.71h-7.7v-35h7.7v15.31l14.22-15.31h9.3l-14.26,14.86,14.92,20.17Z"/></g></g></svg>